<?xml version="1.0" encoding="UTF-8" standalone="no"?><!DOCTYPE svg PUBLIC "-//W3C//DTD SVG 1.1//EN" "http://www.w3.org/Graphics/SVG/1.1/DTD/svg11.dtd"><svg width="100%" height="100%" viewBox="0 0 3000 3000" version="1.1" xmlns="http://www.w3.org/2000/svg" xmlns:xlink="http://www.w3.org/1999/xlink" xml:space="preserve" xmlns:serif="http://www.serif.com/" style="fill-rule:evenodd;clip-rule:evenodd;"><path d="M2819.539,840.23l0,1319.539c0,364.137 -295.633,659.77 -659.77,659.77l-1319.539,0c-364.137,0 -659.77,-295.633 -659.77,-659.77l0,-1319.539c0,-364.137 295.633,-659.77 659.77,-659.77l1319.539,0c364.137,0 659.77,295.633 659.77,659.77Z" style="fill:#7387aa;"/><clipPath id="_clip1"><rect x="525.739" y="525.739" width="1948.521" height="1948.521"/></clipPath><g clip-path="url(#_clip1)"><path d="M1268.87,964.837c102.836,-184.48 154.253,-276.721 231.13,-276.721c76.877,0 128.294,92.24 231.127,276.72l26.605,47.727c29.228,52.423 43.834,78.636 66.623,95.931c22.781,17.295 51.149,23.714 107.899,36.554l51.668,11.69c199.691,45.184 299.545,67.775 323.3,144.166c23.756,76.388 -44.313,155.993 -180.457,315.187l-35.22,41.187c-38.686,45.238 -58.033,67.857 -66.737,95.843c-8.695,27.986 -5.772,58.163 0.073,118.527l5.326,54.948c20.581,212.405 30.876,318.608 -31.314,365.819c-62.198,47.211 -155.687,4.165 -342.664,-81.919l-48.372,-22.278c-53.13,-24.462 -79.695,-36.697 -107.859,-36.697c-28.164,0 -54.729,12.235 -107.859,36.697l-48.372,22.278c-186.978,86.084 -280.467,129.13 -342.66,81.919c-62.193,-47.211 -51.901,-153.414 -31.318,-365.819l5.324,-54.948c5.85,-60.364 8.774,-90.541 0.071,-118.527c-8.702,-27.986 -28.045,-50.605 -66.732,-95.843l-35.221,-41.187c-136.141,-159.194 -204.212,-238.799 -180.456,-315.187c23.756,-76.391 123.604,-98.982 323.302,-144.166l51.664,-11.69c56.747,-12.84 85.121,-19.26 107.903,-36.554c22.782,-17.295 37.395,-43.506 66.617,-95.931l26.605,-47.727Z" style="fill:none;fill-rule:nonzero;stroke:#1c274c;stroke-width:121.78px;"/></g></svg>